HIERARCHY
ROOT Hips
{
  OFFSET 267.745 86.9975 -272.335
  CHANNELS 6 Xposition Yposition Zposition Zrotation Xrotation Yrotation
  JOINT LeftUpLeg
  {
    OFFSET 8.64259 1.95398 -2.38835
    CHANNELS 3 Zrotation Xrotation Yrotation
    JOINT LeftLeg
    {
      OFFSET 43.7702 0 0
      CHANNELS 3 Zrotation Xrotation Yrotation
      JOINT LeftFoot
      {
        OFFSET 40.6238 0 0
        CHANNELS 3 Zrotation Xrotation Yrotation
        JOINT LeftToeBase
        {
          OFFSET 12.7242 0 0
          CHANNELS 3 Zrotation Xrotation Yrotation
          End Site
          {
            OFFSET 0 0 0
          }
        }
      }
    }
  }
  JOINT RightUpLeg
  {
    OFFSET -8.2249 1.95398 -2.59336
    CHANNELS 3 Zrotation Xrotation Yrotation
    JOINT RightLeg
    {
      OFFSET 43.5653 0 0
      CHANNELS 3 Zrotation Xrotation Yrotation
      JOINT RightFoot
      {
        OFFSET 40.6238 0 0
        CHANNELS 3 Zrotation Xrotation Yrotation
        JOINT RightToeBase
        {
          OFFSET 12.7242 0 0
          CHANNELS 3 Zrotation Xrotation Yrotation
          End Site
          {
            OFFSET 0 0 0
          }
        }
      }
    }
  }
  JOINT Spine
  {
    OFFSET 0.165834 0.87714 6.61349
    CHANNELS 3 Zrotation Xrotation Yrotation
    JOINT Spine1
    {
      OFFSET 7.38963 1.71661e-005 0
      CHANNELS 3 Zrotation Xrotation Yrotation
      JOINT Spine2
      {
        OFFSET 11.9445 1.14441e-005 0
        CHANNELS 3 Zrotation Xrotation Yrotation
        JOINT Spine3
        {
          OFFSET 14.7254 4.19617e-005 0
          CHANNELS 3 Zrotation Xrotation Yrotation
          JOINT Spine4
          {
            OFFSET 10.9679 0 0
            CHANNELS 3 Zrotation Xrotation Yrotation
            JOINT RightShoulder
            {
              OFFSET 2.46616 -1.6653 3.69651
              CHANNELS 3 Zrotation Xrotation Yrotation
              JOINT RightArm
              {
                OFFSET 13.0012 0 0
                CHANNELS 3 Zrotation Xrotation Yrotation
                JOINT RightForeArm
                {
                  OFFSET 28.7848 1.52588e-005 0
                  CHANNELS 3 Zrotation Xrotation Yrotation
                  JOINT RightHand
                  {
                    OFFSET 26.5688 1.52588e-005 0
                    CHANNELS 3 Zrotation Xrotation Yrotation
                    End Site
                    {
                      OFFSET 0 0 0
                    }
                  }
                }
              }
            }
            JOINT LeftShoulder
            {
              OFFSET 2.38034 -1.29275 -3.7523
              CHANNELS 3 Zrotation Xrotation Yrotation
              JOINT LeftArm
              {
                OFFSET 16.3182 6.10352e-005 0
                CHANNELS 3 Zrotation Xrotation Yrotation
                JOINT LeftForeArm
                {
                  OFFSET 27.0901 0 0
                  CHANNELS 3 Zrotation Xrotation Yrotation
                  JOINT LeftHand
                  {
                    OFFSET 24.5451 1.52588e-005 0
                    CHANNELS 3 Zrotation Xrotation Yrotation
                    End Site
                    {
                      OFFSET 0 0 0
                    }
                  }
                }
              }
            }
            JOINT Neck
            {
              OFFSET 5.0226 -0.0266342 0
              CHANNELS 3 Zrotation Xrotation Yrotation
              JOINT Head
              {
                OFFSET 6.69364 2.86102e-005 0
                CHANNELS 3 Zrotation Xrotation Yrotation
                End Site
                {
                  OFFSET 0 0 0
                }
              }
            }
          }
        }
      }
    }
  }
}
MOTION
Frames:	15
Frame Time:	0.0416667
4.77032 96.8206 -18.2365 111.638 -85.5453 112.099 -174.599 2.37886 90.9002 -14.7027 5.38449 2.22065 67.5204 4.11107 -0.484698 28.9943 -0.416532 3.39678 175.015 2.26599 88.4018 -14.4806 -6.42252 0.171388 68.5002 -4.86862 1.15669 28.0343 0.192821 -0.0723293 -0.213363 6.92493 -90.2738 13.0378 -0.554996 -0.478961 1.36692 -0.575529 -0.454081 -21.1681 -0.385397 -0.623612 -1.1554 -0.385392 -0.623619 102.633 -50.7886 -81.4461 30.6331 -7.39491 -5.28045 2.4698 -10.7729 -12.975 -12.8936 -0.3912 -1.70844 -79.3234 -51.254 94.6541 -35.2672 -1.74209 -18.1442 -0.893432 46.2171 -1.07248 -3.73991 -0.0590961 -7.00281 7.05322 -0.882881 5.24635 -20.1837 -0.724671 -8.46184 
4.77098 96.814 -18.2338 111.272 -85.4703 111.716 -174.4 2.09184 90.9548 -13.964 4.9053 2.05899 67.3762 4.139 -0.640827 29.0987 -0.286278 2.18387 174.94 2.32177 88.3413 -14.5935 -6.51409 0.247199 68.5131 -4.8155 1.21091 27.6961 0.298928 -0.287551 -0.228075 6.92528 -90.2646 13.0291 -0.579854 -0.458077 1.35819 -0.599445 -0.432113 -21.1769 -0.415369 -0.61116 -1.16428 -0.415378 -0.611171 102.715 -51.072 -81.3225 30.2735 -6.99234 -5.44364 1.9469 -12.3816 -13.1144 -11.3977 -0.6261 1.22216 -79.3714 -51.2034 94.5809 -34.8663 -0.33152 -18.043 -2.27684 39.6005 -0.28625 0.215761 -0.143324 -6.67425 7.14317 -1.34517 4.62449 -19.7212 -1.24267 -7.3821 
4.74909 96.8269 -18.2103 110.852 -85.6192 111.21 -174.524 2.10417 90.8387 -13.8522 4.47017 2.12446 67.2623 3.96465 -1.06505 29.1221 -0.344004 2.66834 174.877 2.53364 88.222 -14.7943 -6.93005 0.305371 68.3626 -4.67028 1.18776 28.047 0.241591 -0.604323 -0.214836 6.92572 -90.2529 13.0414 -0.547913 -0.437993 1.37055 -0.566651 -0.413459 -21.1646 -0.390946 -0.582416 -1.15191 -0.390947 -0.582415 102.764 -51.2168 -81.2481 30.1781 -6.87434 -5.51563 1.89954 -12.5948 -12.9863 -11.5017 -0.594045 0.852248 -79.414 -51.1743 94.5164 -34.9199 -0.244239 -18.2345 -2.40937 39.8894 -0.145416 0.196062 -0.143278 -6.73041 7.14913 -1.32163 4.34797 -19.5795 -1.23119 -6.95693 
4.70407 96.8376 -18.1941 111.962 -85.6848 112.285 -174.519 1.97294 90.8354 -13.7752 4.39821 2.13673 67.3251 3.97646 -1.28845 28.973 -0.388791 3.17147 174.818 2.62325 88.1679 -15.0351 -7.35686 0.375587 68.1912 -4.66972 0.848498 28.5003 0.1245 -0.584994 -0.20572 6.92559 -90.2566 13.0271 -0.531585 -0.447901 1.3562 -0.55078 -0.424081 -21.1788 -0.372399 -0.586954 -1.16618 -0.3724 -0.586959 102.826 -51.0989 -81.151 30.3424 -6.70046 -5.64538 1.9104 -12.5711 -12.8963 -11.6245 -0.591797 0.760869 -79.4541 -51.3792 94.4624 -34.8141 -0.252798 -18.3519 -2.4156 40.0624 -0.124469 0.206562 -0.143051 -6.60668 7.21337 -1.31854 4.66043 -19.7099 -1.23212 -7.34541 
4.68908 96.8537 -18.1766 111.475 -85.6034 111.852 -174.522 1.91146 90.8733 -13.6684 4.43524 2.17672 67.397 4.17629 -1.03622 28.9379 -0.312608 2.53942 174.878 2.63593 88.2546 -15.0687 -7.53893 0.36839 67.9 -4.68976 0.293826 29.164 -0.0842441 -0.127231 -0.218316 6.92578 -90.2513 13.0211 -0.554055 -0.434793 1.35018 -0.572658 -0.409993 -21.185 -0.397769 -0.581207 -1.17231 -0.397772 -0.581215 102.817 -51.3563 -81.1676 30.1742 -6.82849 -5.71173 1.87278 -12.5327 -13.1066 -11.2042 -0.640497 1.52013 -79.5129 -51.1139 94.3663 -34.8014 0.0482281 -18.3609 -2.55899 39.6134 -0.144222 0.318089 -0.142566 -6.58557 7.27703 -1.32717 4.60149 -19.7806 -1.2085 -7.47518 
4.65926 96.8495 -18.1599 111.973 -85.4916 112.319 -174.508 1.85141 90.8745 -13.6674 4.71804 2.16011 67.2283 4.18241 -0.680896 29.3006 -0.313014 2.25451 174.871 2.69422 88.2299 -15.3552 -7.75072 0.380457 67.8413 -4.58176 0.268781 29.1517 -0.0443177 -0.55166 -0.226077 6.92605 -90.2474 13.0102 -0.567682 -0.425923 1.33934 -0.585882 -0.400852 -21.1958 -0.413436 -0.576843 -1.18319 -0.413437 -0.576844 102.864 -51.2406 -81.0946 30.3779 -6.855 -5.72867 1.88633 -12.6186 -13.0303 -11.4001 -0.630228 1.29067 -79.5167 -51.2273 94.3642 -34.6864 0.0499859 -18.507 -2.67863 39.5873 0.00458883 0.583215 -0.147173 -6.55865 7.0723 -1.32266 4.4061 -19.6047 -1.21054 -7.16737 
4.64334 96.8492 -18.1167 112.431 -85.5096 112.837 -174.446 1.82638 90.9697 -13.717 4.53068 2.16809 67.3534 4.13585 -1.1618 29.017 -0.343108 2.73316 174.829 2.68072 88.2403 -15.3813 -8.05626 0.468886 67.5954 -4.43822 0.184742 29.4921 -0.124602 -0.621823 -0.21825 6.93202 -90.2481 13.0093 -0.552406 -0.42872 1.3384 -0.570736 -0.405444 -21.1967 -0.398027 -0.574913 -1.18407 -0.39802 -0.574919 102.856 -51.2264 -81.1066 30.4588 -6.8952 -5.67128 1.86707 -12.7084 -12.9823 -11.4532 -0.582138 0.754913 -79.5669 -51.2872 94.2906 -34.6376 -0.0741388 -18.6174 -2.61216 39.8921 -0.00498168 0.894512 -0.155754 -6.66034 6.92454 -1.35783 4.10185 -19.5431 -1.2235 -6.86793 
4.63445 96.8491 -18.1074 113.546 -85.5053 113.971 -174.478 1.78757 90.9902 -13.8303 4.38131 2.22775 67.4839 4.11116 -1.48712 28.87 -0.39019 3.25933 174.791 2.64872 88.2299 -15.4732 -8.23073 0.519407 67.4566 -4.37763 0.0491753 29.7928 -0.18717 -0.795694 -0.224982 6.93804 -90.2497 12.9966 -0.566561 -0.430326 1.32572 -0.584946 -0.404929 -21.2094 -0.41104 -0.580698 -1.19679 -0.411041 -0.580707 102.748 -51.2379 -81.2727 30.3712 -7.22556 -5.67028 1.97995 -12.6384 -12.9825 -11.9256 -0.607196 0.760723 -79.5571 -51.3903 94.3089 -34.3937 0.216875 -18.614 -2.85702 39.5569 -0.00472736 0.806713 -0.149678 -6.50069 6.88281 -1.2487 4.50304 -19.8022 -1.1087 -7.37473 
4.68117 96.843 -18.0951 114.46 -85.4337 114.663 -174.589 1.61289 90.7429 -13.7445 4.31221 2.20074 67.5121 4.29108 -1.2756 28.9408 -0.346002 2.82553 174.588 2.68723 87.926 -15.7342 -8.32104 0.582412 67.5945 -4.50476 -0.161274 29.9179 -0.286518 0.0499082 -0.250102 6.95745 -90.2041 12.9581 -0.594499 -0.33603 1.28726 -0.608709 -0.309539 -21.2483 -0.46603 -0.499165 -1.23563 -0.466021 -0.499157 102.511 -51.2032 -81.6374 30.3525 -7.5994 -5.64975 2.09019 -12.3313 -13.2509 -12.1051 -0.682408 1.41514 -79.6891 -51.4986 94.1146 -34.6356 -0.414683 -18.6983 -2.39173 41.3693 -0.00475288 -0.174015 -0.132521 -6.55848 6.39399 -1.34222 4.23398 -19.0064 -1.2075 -7.17884 
4.73586 96.842 -18.0549 116.114 -85.6642 116.409 -174.485 1.69252 90.8017 -14.0458 4.12507 2.14605 67.6184 4.36958 -1.12435 29.1315 -0.323366 2.48028 174.59 2.45959 87.9571 -15.3256 -8.2513 0.574189 67.6698 -4.62026 0.0277482 29.8391 -0.287986 0.312518 -0.250582 6.97454 -90.1731 12.9242 -0.580514 -0.275833 1.25331 -0.592092 -0.250015 -21.2823 -0.470774 -0.437552 -1.26971 -0.470782 -0.437556 102.404 -51.0418 -81.8002 30.724 -7.37513 -5.85612 2.2955 -11.5955 -13.1593 -12.3275 -0.675803 1.23148 -79.5851 -51.4784 94.2697 -34.4844 -0.248655 -18.7035 -2.47065 41.3166 -0.0716511 -0.029275 -0.130687 -6.33892 6.26166 -1.03977 4.1857 -19.2086 -0.921043 -6.88873 
4.86765 96.8385 -17.9997 118.64 -85.414 119.2 -174.446 1.58603 90.9921 -14.4651 4.17172 2.27733 67.9097 4.42717 -1.37435 28.8122 -0.349791 2.95666 174.632 1.65425 88.1585 -14.5387 -7.42553 0.509258 67.9025 -4.64556 0.790052 29.225 -0.105532 -0.0574384 -0.286883 7.01638 -90.1139 12.8408 -0.624221 -0.152959 1.16995 -0.630344 -0.125343 -21.3661 -0.549387 -0.3335 -1.35345 -0.549393 -0.333501 102.431 -51.2111 -81.7599 30.8116 -7.70087 -5.79994 2.47448 -11.4073 -13.0917 -13.0416 -0.642285 0.552188 -79.4776 -51.4436 94.4291 -34.222 0.0926164 -18.7695 -2.59696 41.2085 -0.170583 0.768987 -0.139674 -6.16678 5.77594 -1.28619 3.86076 -18.7489 -1.13915 -6.6876 
5.07948 96.7954 -17.9542 120.087 -85.5039 120.949 -174.273 1.72326 91.1877 -14.9667 4.28262 2.22829 68.2356 4.61518 -0.991205 29.016 -0.334273 2.66532 174.746 1.24269 88.3976 -14.0003 -6.65861 0.407837 68.2552 -4.78011 1.45242 28.4762 0.0651218 0.112014 -0.291445 7.03642 -90.0291 12.8012 -0.592686 0.0125103 1.13043 -0.591554 0.0385792 -21.4058 -0.569048 -0.166196 -1.3931 -0.569044 -0.166199 102.37 -51.2116 -81.8542 30.9802 -7.62188 -5.78093 2.18014 -12.3929 -12.8579 -12.0487 -0.587992 0.509076 -79.5901 -51.3186 94.2569 -33.9877 0.462685 -18.8547 -2.93165 40.5718 0.00104743 1.92177 -0.163983 -6.32105 5.57821 -1.49222 3.10595 -18.7597 -1.3545 -5.44571 
5.28639 96.7916 -17.9734 124.113 -85.5779 125.497 -173.984 1.83572 91.6233 -15.6333 4.46202 2.22153 68.5091 4.6795 -0.896354 29.2117 -0.387621 2.98352 175.022 0.800052 88.8701 -13.5053 -6.61478 0.301341 67.7913 -4.87842 1.04679 28.8251 -0.0961915 0.950119 -0.288501 7.07956 -89.9156 12.7154 -0.532605 0.231693 1.04454 -0.521897 0.254907 -21.4915 -0.577621 0.0609031 -1.47883 -0.577623 0.0608992 102.219 -51.4854 -82.0864 31.2485 -7.61765 -5.50917 2.12575 -12.3466 -13.0241 -11.8476 -0.617621 0.907852 -79.7346 -50.8066 94.0231 -33.9023 0.490178 -18.8276 -2.97107 40.0888 -0.00587933 2.12995 -0.188638 -6.86535 5.48294 -1.43325 3.72108 -18.6652 -1.24511 -6.7546 
5.64685 96.7967 -18.0105 130.643 -85.9054 132.395 -174.019 1.72659 91.6375 -15.886 4.2814 2.34902 68.5977 4.74498 -0.226126 29.5235 -0.358137 2.47452 175.073 0.601116 88.9632 -13.3387 -6.94846 0.296568 67.7006 -4.82864 1.38383 28.7924 -0.0503209 0.531788 -0.271311 7.11058 -89.7997 12.6534 -0.443239 0.452345 0.982461 -0.4229 0.471407 -21.553 -0.558692 0.298223 -1.54032 -0.558693 0.298219 102.108 -51.5606 -82.2572 31.4936 -7.60497 -5.58038 2.00086 -12.9907 -12.8323 -11.6432 -0.619085 1.03399 -79.5993 -51.2682 94.2416 -32.5666 0.281752 -18.9406 -3.13318 39.5244 -0.00588734 1.09587 -0.19137 -7.66244 5.76097 -1.11067 4.15424 -19.2592 -0.982684 -6.75126 
6.06246 96.7617 -18.1034 138.974 -86.0585 141.182 -173.722 1.76563 91.9013 -16.5645 4.08465 2.23895 69.0159 4.91033 0.0928717 29.4552 -0.266459 1.70624 175.334 0.372654 89.2067 -13.2465 -6.83196 0.0871213 67.6411 -4.6054 2.11446 28.3997 0.0834072 0.119296 -0.243966 7.1558 -89.6969 12.563 -0.340167 0.645122 0.891965 -0.31144 0.65946 -21.6427 -0.518326 0.513068 -1.63003 -0.518325 0.513067 101.95 -51.1995 -82.5005 32.2853 -7.64596 -5.68807 2.07347 -12.9338 -12.7056 -11.6294 -0.589182 0.735349 -79.6002 -51.127 94.2356 -32.4208 -0.397269 -19.0428 -2.85819 40.0015 -0.00591954 0.899506 -0.158965 -6.77836 5.785 -0.904291 4.75366 -19.3476 -0.801447 -7.3957 
